<svg width="270" height="31" viewBox="0 0 270 31" fill="none" xmlns="http://www.w3.org/2000/svg">
<g clip-path="url(#clip0_615_456)">
<path d="M4.34818 15.8949L14.3234 20.2635V25.7242L0 18.6057V14.7053L4.34818 15.8949ZM14.3234 12.326L4.34818 16.7725L0 17.8842V14.0032L14.3234 6.88477V12.326Z" fill="#0297D0"/>
<path d="M252.371 0L243.734 30.8335H239.681L248.357 0H252.371Z" fill="#0297D0"/>
<path d="M265.572 16.6751L255.499 12.3064V6.88477L270 14.0227V17.9232L265.572 16.6751ZM255.499 20.283L265.572 15.8364L270 14.7053V18.6057L255.499 25.7047V20.283Z" fill="#0297D0"/>
<path d="M20.0361 17.2319C20.0361 14.7157 20.5439 12.475 21.5593 10.5099C22.5988 8.54475 24.0736 7.02299 25.9836 5.94458C27.8935 4.84221 30.142 4.29102 32.7288 4.29102C34.9532 4.29102 36.9356 4.71039 38.6763 5.54916C40.4413 6.36396 41.8677 7.52625 42.9556 9.03603C44.0677 10.5458 44.8051 12.3072 45.1678 14.3202H36.6818C36.2949 13.4815 35.7389 12.8344 35.0136 12.3791C34.3125 11.8998 33.5026 11.6602 32.5838 11.6602C31.23 11.6602 30.154 12.1634 29.3562 13.1699C28.5826 14.1765 28.1958 15.5305 28.1958 17.2319C28.1958 18.9334 28.5826 20.2875 29.3562 21.294C30.154 22.3005 31.23 22.8038 32.5838 22.8038C33.5026 22.8038 34.3125 22.5761 35.0136 22.1207C35.7389 21.6415 36.2949 20.9824 36.6818 20.1437H45.1678C44.8051 22.1567 44.0677 23.9181 42.9556 25.4279C41.8677 26.9376 40.4413 28.1119 38.6763 28.9507C36.9356 29.7656 34.9532 30.1729 32.7288 30.1729C30.142 30.1729 27.8935 29.6337 25.9836 28.5553C24.0736 27.453 22.5988 25.9192 21.5593 23.9541C20.5439 21.989 20.0361 19.7482 20.0361 17.2319Z" fill="white"/>
<path d="M60.5775 30.2449C58.1598 30.2449 55.9356 29.6817 53.9047 28.5554C51.8981 27.429 50.3024 25.8713 49.1177 23.8822C47.9332 21.8932 47.3408 19.6525 47.3408 17.1601C47.3408 14.6678 47.9332 12.4271 49.1177 10.438C50.3024 8.44894 51.8981 6.90322 53.9047 5.80084C55.9356 4.67449 58.1598 4.11133 60.5775 4.11133C62.9952 4.11133 65.2073 4.67449 67.214 5.80084C69.2206 6.90322 70.8042 8.44894 71.9647 10.438C73.1494 12.4271 73.7417 14.6678 73.7417 17.1601C73.7417 19.6525 73.1494 21.8932 71.9647 23.8822C70.8042 25.8713 69.2085 27.429 67.1777 28.5554C65.171 29.6817 62.971 30.2449 60.5775 30.2449ZM60.5775 22.8038C62.1731 22.8038 63.4061 22.3006 64.2765 21.294C65.1469 20.2636 65.5821 18.8855 65.5821 17.1601C65.5821 15.4106 65.1469 14.0327 64.2765 13.0262C63.4061 11.9957 62.1731 11.4805 60.5775 11.4805C58.9577 11.4805 57.7126 11.9957 56.8422 13.0262C55.9719 14.0327 55.5366 15.4106 55.5366 17.1601C55.5366 18.8855 55.9719 20.2636 56.8422 21.294C57.7126 22.3006 58.9577 22.8038 60.5775 22.8038Z" fill="white"/>
<path d="M87.3442 4.54297C90.0278 4.54297 92.3729 5.08217 94.3796 6.16059C96.4104 7.239 97.9698 8.73679 99.0578 10.654C100.146 12.5711 100.69 14.752 100.69 17.1963C100.69 19.6168 100.146 21.7975 99.0578 23.7388C97.9698 25.6799 96.4104 27.2136 94.3796 28.34C92.3729 29.4423 90.0278 29.9935 87.3442 29.9935H76.646V4.54297H87.3442ZM86.6189 22.876C88.4322 22.876 89.8707 22.3847 90.9344 21.4022C91.9983 20.4196 92.5301 19.0177 92.5301 17.1963C92.5301 15.3751 91.9983 13.973 90.9344 12.9905C89.8707 12.0079 88.4322 11.5167 86.6189 11.5167H84.6969V22.876H86.6189Z" fill="white"/>
<path d="M111.648 10.9056V14.033H119.626V20.0361H111.648V23.6309H120.714V29.9935H103.597V4.54297H120.714V10.9056H111.648Z" fill="white"/>
<path d="M129.185 17.2319C129.185 14.7157 129.693 12.475 130.708 10.5099C131.747 8.54475 133.223 7.02299 135.132 5.94458C137.042 4.84221 139.291 4.29102 141.878 4.29102C144.102 4.29102 146.085 4.71039 147.825 5.54916C149.59 6.36396 151.016 7.52625 152.105 9.03603C153.216 10.5458 153.954 12.3072 154.317 14.3202H145.83C145.443 13.4815 144.888 12.8344 144.162 12.3791C143.462 11.8998 142.652 11.6602 141.732 11.6602C140.379 11.6602 139.303 12.1634 138.505 13.1699C137.731 14.1765 137.344 15.5305 137.344 17.2319C137.344 18.9334 137.731 20.2875 138.505 21.294C139.303 22.3005 140.379 22.8038 141.732 22.8038C142.652 22.8038 143.462 22.5761 144.162 22.1207C144.888 21.6415 145.443 20.9824 145.83 20.1437H154.317C153.954 22.1567 153.216 23.9181 152.105 25.4279C151.016 26.9376 149.59 28.1119 147.825 28.9507C146.085 29.7656 144.102 30.1729 141.878 30.1729C139.291 30.1729 137.042 29.6337 135.132 28.5553C133.223 27.453 131.747 25.9192 130.708 23.9541C129.693 21.989 129.185 19.7482 129.185 17.2319Z" fill="white"/>
<path d="M212.726 4.54297V29.9935H204.711V17.3042L200.758 29.9935H193.867L189.915 17.3042V29.9935H181.864V4.54297H191.728L197.386 19.8205L202.898 4.54297H212.726Z" fill="white"/>
<path d="M237.356 13.2781C237.356 14.8837 236.981 16.3456 236.231 17.6637C235.481 18.9577 234.37 19.9883 232.895 20.7551C231.444 21.5219 229.679 21.9054 227.6 21.9054H224.409V29.9935H216.358V4.54297H227.6C230.743 4.54297 233.148 5.3338 234.817 6.91547C236.509 8.49714 237.356 10.618 237.356 13.2781ZM226.693 15.6147C228.361 15.6147 229.195 14.8358 229.195 13.2781C229.195 11.7204 228.361 10.9415 226.693 10.9415H224.409V15.6147H226.693Z" fill="white"/>
<path d="M165.364 8.96094L152.769 28.736H161.08L165.364 23.042V8.96094Z" fill="#06A9A9"/>
<path d="M165.362 9.45898L178.104 29.2749H169.793L165.362 23.4221V9.45898Z" fill="#0297D0"/>
<path fill-rule="evenodd" clip-rule="evenodd" d="M165.51 7.49805L151.115 29.8893H179.906L165.51 7.49805ZM165.51 10.6209L154.184 28.2387H176.837L165.51 10.6209Z" fill="white"/>
<path d="M165.362 22.9922L170.706 29.8919H160.02L165.362 22.9922Z" fill="#E9FE84"/>
<path fill-rule="evenodd" clip-rule="evenodd" d="M165.362 22.9922L160.02 29.8919H170.706L165.362 22.9922ZM165.362 25.3614L162.916 28.5213H167.81L165.362 25.3614Z" fill="white"/>
<path fill-rule="evenodd" clip-rule="evenodd" d="M168.238 5.10249L164.325 12.0146L163.153 11.3925L167.067 4.48047L168.238 5.10249Z" fill="white"/>
<path fill-rule="evenodd" clip-rule="evenodd" d="M162.262 5.30414L166.498 12.0356L167.639 11.3623L163.402 4.63086L162.262 5.30414Z" fill="white"/>
</g>
<defs>
<clipPath id="clip0_615_456">
<rect width="270" height="31" fill="white"/>
</clipPath>
</defs>
</svg>
